<svg xmlns="http://www.w3.org/2000/svg" viewBox="0 0 96 64" role="img" aria-label="Sebastian Taylor">
  <g fill="currentColor">
    <!-- Monogram: ST as a single cut -->
    <path d="M11 9.4c5.2-1.7 11.6-1.6 16.6.4 1.4.6 2.7 1.4 3.6 2.4l-3.6 4.6c-1.6-1.4-3.4-2.3-5.4-2.7-2.4-.5-4.8-.3-6.6.4-1.5.6-2.4 1.5-2.4 2.7 0 1.6 2 2.5 5.6 3.3 6 1.4 9.7 2.6 11.6 4.6 1.6 1.7 2.4 4 2.4 6.7 0 4-1.7 7.2-5.2 9.5-3.4 2.3-7.7 3.4-12.6 3.4-3.4 0-6.5-.5-9.4-1.6L7.6 38c2.5 1 4.7 1.5 7 1.6 4.4 0 7.5-1.5 7.5-4.4 0-1.6-1.6-2.5-5.5-3.5-6.4-1.6-10-3-11.8-5.2-1.4-1.6-2-3.7-2-6.4 0-3.6 1.5-6.4 4.5-8.4Z"/>
    <path d="M58 14.6h-9.6V9.4h26v5.2h-9.6v33.4H58z"/>
  </g>
</svg>
